<svg xmlns="http://www.w3.org/2000/svg" width="432" height="432" viewBox="0 0 432 432">
  <defs>
    <linearGradient id="bg" x1="68" y1="46" x2="364" y2="388" gradientUnits="userSpaceOnUse">
      <stop offset="0" stop-color="#3498FF"/>
      <stop offset=".58" stop-color="#1660C7"/>
      <stop offset="1" stop-color="#071F59"/>
    </linearGradient>
    <radialGradient id="glow" cx="196" cy="154" r="190" gradientUnits="userSpaceOnUse">
      <stop offset="0" stop-color="#9BDBFF" stop-opacity=".34"/>
      <stop offset=".52" stop-color="#5BB7FF" stop-opacity=".14"/>
      <stop offset="1" stop-color="#5BB7FF" stop-opacity="0"/>
    </radialGradient>
    <mask id="crescentMask">
      <rect width="432" height="432" fill="black"/>
      <circle cx="197" cy="163" r="76" fill="white"/>
      <circle cx="229" cy="139" r="76" fill="black"/>
    </mask>
  </defs>

  <rect width="432" height="432" rx="96" fill="url(#bg)"/>
  <circle cx="196" cy="154" r="190" fill="url(#glow)"/>

  <circle cx="197" cy="163" r="76" fill="#FFE9A8" mask="url(#crescentMask)"/>

  <path d="M302 118l9 19 19 9-19 9-9 19-9-19-19-9 19-9z" fill="#FFF2BF"/>
  <path d="M126 228l6 13 13 6-13 6-6 13-6-13-13-6 13-6z" fill="#FFF2BF" opacity=".86"/>
  <circle cx="286" cy="242" r="7" fill="#FFF2BF" opacity=".82"/>

  <path d="M134 308h164" stroke="#9DDCFF" stroke-width="22" stroke-linecap="round" opacity=".50"/>
  <path d="M169 348h96" stroke="#D2EEFF" stroke-width="18" stroke-linecap="round" opacity=".40"/>
</svg>
